<svg width="14" height="15" viewBox="0 0 14 15" fill="none" xmlns="http://www.w3.org/2000/svg">
<path d="M0.333496 14.2043V8.37092H6.16683L3.486 11.0543C4.41096 12.0001 5.67722 12.5346 7.00016 12.5376C9.11637 12.5345 11.0014 11.1994 11.7068 9.20425H11.7218C11.8173 8.9331 11.8895 8.65431 11.9377 8.37092H13.6143C13.1944 11.7042 10.3598 14.2041 7.00016 14.2043H6.99183C5.22413 14.2095 3.5278 13.5074 2.281 12.2543L0.333496 14.2043ZM2.06183 6.70425H0.385163C0.804954 3.37226 3.63766 0.872704 6.996 0.870884H7.00016C8.76818 0.865226 10.4649 1.56745 11.7118 2.82092L13.6668 0.870884V6.70425H7.8335L10.5185 4.02092C9.59257 3.07396 8.32457 2.53937 7.00016 2.53758C4.88396 2.54071 2.9989 3.87574 2.2935 5.87092H2.2785C2.18229 6.14184 2.11007 6.42069 2.06266 6.70425H2.06183Z" fill="#18C99D"/>
</svg>
