<?xml version="1.0" standalone="no"?><!DOCTYPE svg PUBLIC "-//W3C//DTD SVG 1.1//EN" "http://www.w3.org/Graphics/SVG/1.1/DTD/svg11.dtd"><svg t="1581832809208" class="icon" viewBox="0 0 1024 1024" version="1.1" xmlns="http://www.w3.org/2000/svg" p-id="14020" width="18" height="18" xmlns:xlink="http://www.w3.org/1999/xlink"><defs><style type="text/css"></style></defs><path d="M617.36 857.329c-23.814 0-69.51-3.523-117.884-7.26-49.97-3.856-106.23-8.198-140.334-8.679v-49.638c35.625 0.45 90.752 4.705 144.154 8.832l0.579 0.04c47.19 3.636 91.765 7.071 113.49 7.071 46.868 0 99.988 0 137.303-24.37 23.52-15.36 34.851-78.695 44.441-142.245 2.34-15.498 4.49-29.772 6.86-42.199 4.435-23.183 13.062-45.685 20.665-65.536 11.408-29.742 22.18-57.835 12.503-72.002l-1.776-2.596h-1.378c-4.464-2.54-15.114-6.349-39.173-6.79a256.138 256.138 0 0 0-4.449-0.035c-23.47 0-50.217 2.888-73.81 5.442-20.593 2.233-38.38 4.158-52.372 4.158-40.428 0-66.847-9.646-78.505-28.662-7.578-12.365-7.732-27.689-0.415-42.035 38.21-75.07 22.113-143.11 13.465-179.66-0.89-3.754-1.684-7.107-2.324-10.051-2.483-11.444-16.589-18.289-28.785-18.289-1.454 0-2.882 0.102-4.244 0.302-7.055 1.055-14.956 4.5-13.507 21.975 13.717 166.083-146.923 248.064-183.675 264.571l-19.092-45.834C381.455 409.2 513.29 341.18 502.385 209.193c-3.774-45.609 25.226-70.615 55.639-75.162a77.763 77.763 0 0 1 11.438-0.834c32.281 0 69.248 19.707 77.435 57.37a519.574 519.574 0 0 0 1.812 7.874l0.302 1.239c8.858 37.432 27.295 115.282-11.832 201.815l-3.093 6.845 7.368 1.45c7.05 1.382 15.365 2.083 24.71 2.083 11.355 0 28.692-1.879 47.037-3.87 26.22-2.837 53.324-5.77 78.581-5.77 45.783 0 73.862 9.891 88.351 31.124 24.31 35.62 7.603 79.237-7.137 117.719-7.22 18.836-14.669 38.277-18.268 57.124-2.176 11.34-4.23 24.97-6.41 39.403l-0.118 0.773c-10.435 69.228-22.267 147.687-66.402 176.507-49.669 32.446-113.31 32.446-164.439 32.446z" fill="#8a8a8a" p-id="14021"></path><path d="M238.413 856.018c-31.304 0-56.77-25.467-56.77-56.76v-339.61c0-31.304 25.466-56.77 56.77-56.77h82.831c31.304 0 56.77 25.466 56.77 56.765v339.61c0 31.298-25.466 56.765-56.77 56.765h-82.831z m0-403.497a7.132 7.132 0 0 0-7.127 7.127v339.615c0 3.927 3.2 7.122 7.127 7.122h82.831c3.917 0 7.112-3.185 7.127-7.097v-339.64c0-3.932-3.2-7.127-7.127-7.127h-82.831z" fill="#8a8a8a" p-id="14022"></path></svg>