<svg width="15" height="11" viewBox="0 0 15 11" fill="none" xmlns="http://www.w3.org/2000/svg">
<path d="M7.49984 0.445435C4.1665 0.445435 1.31984 2.51877 0.166504 5.44543C1.31984 8.3721 4.1665 10.4454 7.49984 10.4454C10.8332 10.4454 13.6798 8.3721 14.8332 5.44543C13.6798 2.51877 10.8332 0.445435 7.49984 0.445435ZM7.49984 8.77877C5.65984 8.77877 4.1665 7.28543 4.1665 5.44543C4.1665 3.60543 5.65984 2.1121 7.49984 2.1121C9.33984 2.1121 10.8332 3.60543 10.8332 5.44543C10.8332 7.28543 9.33984 8.77877 7.49984 8.77877ZM7.49984 3.44543C6.39317 3.44543 5.49984 4.33877 5.49984 5.44543C5.49984 6.5521 6.39317 7.44543 7.49984 7.44543C8.6065 7.44543 9.49984 6.5521 9.49984 5.44543C9.49984 4.33877 8.6065 3.44543 7.49984 3.44543Z" fill="#999999"/>
</svg>
