<svg t="1634388623780" class="icon" viewBox="0 0 1024 1024" version="1.1" xmlns="http://www.w3.org/2000/svg" p-id="3489" width="64" height="64"><path d="M821.81083872 1001.50481121H164.4073517c-87.12195679 0-157.99905187-70.87709508-157.99905188-157.97272305V186.12860113c0-87.12195679 70.87709508-157.97272306 157.99905188-157.97272306h613.85567304c23.61692209 0 42.75795037 19.14102831 42.75795035 42.75795038 0 23.61692209-19.14102831 42.75795037-42.75795035 42.75795034H164.4073517c-39.96709894 0-72.48315108 32.51605216-72.48315111 72.45682234v657.40348703c0 39.96709894 32.51605216 72.45682234 72.48315111 72.45682226h657.37715822c39.96709894 0 72.48315108-32.51605216 72.48315111-72.45682226V444.49298967c0-23.61692209 19.14102831-42.75795037 42.75795037-42.75795038s42.75795037 19.14102831 42.75795038 42.75795038v399.03909849c0 87.12195679-70.8507663 157.97272306-157.97272306 157.97272305z" fill="#55BF90" p-id="3490"></path><path d="M744.32521807 369.71923414c-11.82162545 0-23.56426452-4.84449684-32.01580526-14.40184661-15.66562838-17.6666162-14.05957233-44.67995184 3.60704388-60.34558023l231.40371052-205.20656726c17.6402874-15.69195717 44.73260943-14.05957233 60.34558019 3.60704385 15.66562838 17.6666162 14.05957233 44.67995184-3.60704384 60.34558018L772.65499303 358.92443135c-8.10926645 7.24041649-18.24584953 10.79480272-28.32977496 10.79480279zM459.76368625 359.29303438h-242.59344506c-23.61692209 0-42.75795037-19.14102831-42.75795038-42.75795038 0-23.61692209 19.14102831-42.75795037 42.75795038-42.7579504h242.59344506c23.61692209 0 42.75795037 19.14102831 42.75795037 42.7579504 0 23.61692209-19.14102831 42.75795037-42.75795037 42.75795038zM573.76733473 577.61133765H217.17024119c-23.61692209 0-42.75795037-19.14102831-42.75795038-42.75795035 0-23.61692209 19.14102831-42.75795037 42.75795038-42.75795039h356.57076475c23.61692209 0 42.75795037 19.14102831 42.75795038 42.75795039 0.02632879 23.61692209-19.14102831 42.75795037-42.73162159 42.75795035zM744.77280745 795.92964091H217.17024119c-23.61692209 0-42.75795037-19.14102831-42.75795038-42.75795034s19.14102831-42.75795037 42.75795038-42.75795038h527.60256626c23.61692209 0 42.75795037 19.14102831 42.75795037 42.75795038s-19.14102831 42.75795037-42.75795037 42.75795034z" fill="#55BF90" p-id="3491"></path></svg>