<?xml version="1.0" standalone="no"?><!DOCTYPE svg PUBLIC "-//W3C//DTD SVG 1.1//EN" "http://www.w3.org/Graphics/SVG/1.1/DTD/svg11.dtd"><svg t="1581832708364" class="icon" viewBox="0 0 1024 1024" version="1.1" xmlns="http://www.w3.org/2000/svg" p-id="12983" width="18" height="18" xmlns:xlink="http://www.w3.org/1999/xlink"><defs><style type="text/css"></style></defs><path d="M298 568.459c0-164.028 108.301-328.792 272.334-328.792 10.459 0-0.703-17.248-0.703-17.248-21.201-4.8-43.252-7.329-65.889-7.329-164.033 0-297.012 132.969-297.012 297.002 0 126.084 78.701 233.545 189.551 276.65C336.066 734.377 298 655.959 298 568.459" fill="#8a8a8a" opacity=".1" p-id="12984"></path><path d="M441.576 630.07c-13.807 0-25-11.193-25-25 0-45.553 8.928-89.756 26.536-131.384 17.002-40.195 41.336-76.289 72.327-107.278 30.99-30.99 67.084-55.324 107.279-72.326 27.548-11.652 56.221-19.503 85.669-23.481l-19.581-28.149c-6.971-10.021-5.685-23.611 3.041-32.147 8.727-8.536 22.34-9.523 32.207-2.333l86.65 63.149a25.007 25.007 0 0 1 9.974 16.329 25.008 25.008 0 0 1-4.494 18.599l-62.08 85.181c-8.133 11.158-23.769 13.612-34.929 5.479-11.158-8.132-13.611-23.77-5.479-34.928l32.154-44.119c-154.746 4.38-279.274 131.624-279.274 287.408 0 13.807-11.193 25-25 25z" fill="#8a8a8a" p-id="12985"></path><path d="M511.742 834.094c-86.012 0-166.876-33.493-227.695-94.311-60.821-60.817-94.316-141.681-94.316-227.691 0-86.011 33.496-166.874 94.316-227.691 60.819-60.817 141.684-94.311 227.695-94.311 24.094 0 48.119 2.673 71.409 7.946 13.466 3.049 21.911 16.437 18.862 29.903s-16.433 21.916-29.903 18.863c-19.673-4.454-39.983-6.712-60.368-6.712-149.988 0-272.012 122.02-272.012 272.002s122.024 272.002 272.012 272.002c149.982 0 272.002-122.02 272.002-272.002 0-30.118-4.882-59.69-14.509-87.896-4.461-13.067 2.517-27.276 15.583-31.736s27.274 2.518 31.736 15.584c11.406 33.417 17.189 68.423 17.189 104.047 0 86.01-33.496 166.872-94.318 227.691-60.82 60.819-141.679 94.312-227.683 94.312z" fill="#8a8a8a" p-id="12986"></path></svg>