<svg t="1634388201044" class="icon" viewBox="0 0 1024 1024" version="1.1" xmlns="http://www.w3.org/2000/svg" p-id="3169" width="64" height="64"><path d="M64.303027 375.720174c0 83.529415 57.328683 132.415822 111.917976 149.448754l0-298.897507C121.63171 243.305375 64.303027 292.190759 64.303027 375.720174zM213.534839 263.61084l0 224.221738c0 25.620517 11.932774 37.337373 37.289278 37.337373l149.256372 0 0-298.897507L250.824117 226.272443C225.467613 226.272443 213.534839 238.012835 213.534839 263.61084zM213.534839 562.531883c0 0-41.717124 154.236803 37.289278 297.81485 115.094318 149.930731 124.861776 66.304102 111.942535 37.289278-12.919241-29.013801-41.691541-223.451188 37.314861-335.105151C385.718387 562.531883 213.534839 562.531883 213.534839 562.531883zM884.562762 263.321244l0 224.846978c43.689035-17.755386 75.133188-61.782112 75.133188-112.832811C959.69595 324.236616 928.251797 281.07663 884.562762 263.321244zM810.463114 76.847226l37.313837 0 0 597.72236-37.313837 0 0-597.72236ZM437.370791 226.272443c0 94.643544 0 267.284509 0 298.897507 236.996692 0 335.802022 149.400658 335.802022 149.400658L773.172813 76.847226C773.172813 76.847226 674.367483 226.272443 437.370791 226.272443zM474.684628 413.010475 474.684628 300.972772c0 0 101.356432 0.264013 261.150812-112.086821C675.208641 353.804025 474.684628 413.010475 474.684628 413.010475z" p-id="3170" fill="#55BF90"></path></svg>