<svg width="100" height="22" viewBox="0 0 46 23" fill="none" xmlns="http://www.w3.org/2000/svg">
<path d="M16.4001 13.4391C16.0869 9.933 14.4252 8.73163 14.4252 8.73163C14.5937 13.4391 10.6686 15.7928 9.31968 14.9042C7.41742 13.6555 9.31968 11.686 9.31968 11.686C11.0777 9.54869 11.5352 8.66006 11.6321 6.54638C11.7758 2.70332 7.73015 0.0379639 7.73015 0.0379639C7.73015 3.76044 5.85212 4.98548 4.47952 6.2821C4.26259 6.4748 3.01002 7.55504 2.9379 7.60349C1.13199 9.11594 0 11.3733 0 13.8707C0 15.648 0.553884 17.2816 1.5174 18.6024C1.5174 18.6024 1.63743 18.7704 1.85435 19.0346C2.48136 19.8052 3.24956 20.4491 4.11779 20.9319C5.12976 21.5805 6.4539 22.0606 8.09133 22.0606H8.40461C8.66944 22.0606 8.93427 22.0364 9.17542 22.0127C9.3439 21.9648 9.51238 21.9406 9.65718 21.9164C9.68086 21.9164 9.70508 21.9406 9.72876 21.9164C10.1691 21.8219 10.6035 21.7016 11.0298 21.5563C11.0535 21.5563 11.0777 21.5321 11.1019 21.5321C12.2703 21.0813 13.3214 20.3717 14.1765 19.4567C15.0315 18.5417 15.6683 17.4449 16.039 16.2487C16.2553 15.5043 16.3759 14.7115 16.3759 13.895C16.4001 13.727 16.4001 13.5828 16.4001 13.4385V13.4391Z" fill="#F45862"/>
<path fill-rule="evenodd" clip-rule="evenodd" d="M17.8 8.73712C18.3788 9.43308 19.2756 10.904 19.5084 13.5097C19.5084 13.6713 19.5084 13.833 19.4812 14.0211C19.4812 14.937 19.346 15.8264 19.1032 16.6614C18.6874 18.0032 17.9732 19.2335 17.0141 20.2599C16.4409 20.8733 15.7891 21.4044 15.0776 21.8404H41.4305L41.7434 21.6724C46.8795 18.9147 46.9316 11.5674 41.8351 8.73712H17.8Z" fill="#F45862"/>
<path d="M25.1139 11.4185H29.6521L28.9471 13.2869H27.6694L25.4957 19.1589H23.5864L25.6867 13.2869H24.4236L25.1139 11.4185ZM32.2664 13.0941H31.1208L29.5934 17.4092H30.7389L32.2664 13.0941ZM27.2288 18.6399L29.6521 11.9375L30.4158 11.4185H34.3813L34.631 11.9375L32.2076 18.6399L31.5761 19.1589H27.6106L27.2288 18.6399ZM37.8915 13.1535H36.7459L36.1143 15.0218H37.2599C37.2599 15.0367 37.8915 13.1535 37.8915 13.1535ZM32.6482 19.1589L35.4681 11.4185H40.0064L40.3295 11.9375L38.802 16.1933L38.0971 16.7123H35.4681L34.5722 19.1589H32.6482Z" fill="#F7F9FC"/>
</svg>
