<svg width="15" height="14" viewBox="0 0 15 14" fill="none" xmlns="http://www.w3.org/2000/svg">
<path d="M0.718262 13.1105H3.18426V5.71246H0.718262V13.1105ZM14.2813 6.32896C14.2813 5.65081 13.7264 5.09596 13.0483 5.09596H9.15815L9.74382 2.27855L9.76232 2.08127C9.76232 1.82851 9.65751 1.59424 9.49106 1.42778L8.83757 0.780457L4.781 4.84319C4.55289 5.06513 4.41726 5.37338 4.41726 5.71246V11.8775C4.41726 12.5556 4.97211 13.1105 5.65026 13.1105H11.1988C11.7105 13.1105 12.1482 12.8022 12.3331 12.3583L14.195 8.012C14.2504 7.87021 14.2813 7.72225 14.2813 7.56196V6.32896Z" fill="#999999"/>
</svg>
