<?xml version="1.0" standalone="no"?><!DOCTYPE svg PUBLIC "-//W3C//DTD SVG 1.1//EN" "http://www.w3.org/Graphics/SVG/1.1/DTD/svg11.dtd"><svg t="1581831768305" class="icon" viewBox="0 0 1024 1024" version="1.1" xmlns="http://www.w3.org/2000/svg" p-id="8782" width="18" height="18" xmlns:xlink="http://www.w3.org/1999/xlink"><defs><style type="text/css"></style></defs><path d="M375.893333 512.426667m-42.666666 0a42.666667 42.666667 0 1 0 85.333333 0 42.666667 42.666667 0 1 0-85.333333 0Z" fill="#FC455D" p-id="8783"></path><path d="M512 512m-42.666667 0a42.666667 42.666667 0 1 0 85.333334 0 42.666667 42.666667 0 1 0-85.333334 0Z" fill="#FC455D" p-id="8784"></path><path d="M643.626667 512.426667m-42.666667 0a42.666667 42.666667 0 1 0 85.333333 0 42.666667 42.666667 0 1 0-85.333333 0Z" fill="#FC455D" p-id="8785"></path><path d="M504.533333 866.133333H285.653333a74.666667 74.666667 0 0 1-74.666666-74.666666v-92.8a354.133333 354.133333 0 1 1 654.293333-160.64A359.253333 359.253333 0 0 1 504.533333 866.133333zM512 221.866667a294.4 294.4 0 0 0-29.44 1.493333 290.133333 290.133333 0 0 0-213.333333 448 32 32 0 0 1 5.333333 17.706667v102.4a10.666667 10.666667 0 0 0 10.666667 10.666666h219.306666A295.04 295.04 0 0 0 801.28 533.333333 290.133333 290.133333 0 0 0 512 221.866667z" fill="#A2A2A2" p-id="8786"></path></svg>