<svg width="16" height="15" viewBox="0 0 16 15" fill="none" xmlns="http://www.w3.org/2000/svg">
<path fill-rule="evenodd" clip-rule="evenodd" d="M12.4389 1.66666H3.46052C2.75214 1.66666 2.17789 2.24091 2.17789 2.94929V11.9277C2.17789 12.636 2.75214 13.2103 3.46052 13.2103H12.4389C13.1473 13.2103 13.7215 12.636 13.7215 11.9277V2.94929C13.7215 2.24091 13.1473 1.66666 12.4389 1.66666ZM3.46052 0.384033C2.04377 0.384033 0.895264 1.53254 0.895264 2.94929V11.9277C0.895264 13.3444 2.04377 14.4929 3.46052 14.4929H12.4389C13.8556 14.4929 15.0042 13.3444 15.0042 11.9277V2.94929C15.0042 1.53254 13.8556 0.384033 12.4389 0.384033H3.46052Z" fill="black"/>
<path d="M10.515 7.43848L6.66708 10.2154V4.66151L10.515 7.43848Z" fill="black"/>
</svg>
