<svg width="15" height="15" viewBox="0 0 15 15" fill="none" xmlns="http://www.w3.org/2000/svg">
<path fill-rule="evenodd" clip-rule="evenodd" d="M13.2257 11.9607L13.2257 2.37048C13.2257 1.99216 12.919 1.68547 12.5407 1.68547L2.9504 1.68547C2.57208 1.68547 2.26538 1.99216 2.26538 2.37048L2.26538 11.9607C2.26538 12.3391 2.57208 12.6457 2.9504 12.6457L12.5406 12.6457C12.919 12.6457 13.2257 12.3391 13.2257 11.9607ZM14.5957 2.37048C14.5957 1.23551 13.6756 0.31543 12.5407 0.31543L2.9504 0.31543C1.81543 0.31543 0.895348 1.23551 0.895348 2.37048L0.895347 11.9607C0.895347 13.0957 1.81543 14.0158 2.9504 14.0158L12.5406 14.0158C13.6756 14.0158 14.5957 13.0957 14.5957 11.9607L14.5957 2.37048Z" fill="black"/>
<path d="M11.1706 6.48059L11.1706 7.85062L4.32044 7.85062L4.32044 6.48059L11.1706 6.48059Z" fill="black"/>
<path d="M7.06051 9.22066L7.06051 10.5907L4.32044 10.5907L4.32044 9.22066L7.06051 9.22066Z" fill="black"/>
<path d="M9.11556 3.74052L9.11556 5.11055L4.32044 5.11055L4.32044 3.74052L9.11556 3.74052Z" fill="black"/>
</svg>
