<svg t="1632882678997" class="icon" viewBox="0 0 1024 1024" version="1.1" xmlns="http://www.w3.org/2000/svg" p-id="5868" width="64" height="64"><path d="M476.9 657.5c-4.2 0-8.5-1.5-11.9-4.5L320.7 526.7c-7.5-6.6-8.3-18-1.7-25.5 6.6-7.5 18-8.3 25.5-1.7l132.2 115.6 222.6-205.5c7.3-6.8 18.8-6.3 25.5 1 6.8 7.3 6.3 18.7-1 25.5L489.2 652.7c-3.5 3.2-7.9 4.8-12.3 4.8z" fill="#ffffff" p-id="5869"></path><path d="M837.8 928.1H188.2c-49.7 0-90.2-40.5-90.2-90.2V188.4c0-49.7 40.5-90.2 90.2-90.2h649.6c49.7 0 90.2 40.5 90.2 90.2V838c0 49.7-40.5 90.1-90.2 90.1zM188.2 134.2c-29.8 0-54.1 24.3-54.1 54.1v649.6c0 29.8 24.3 54.1 54.1 54.1h649.6c29.8 0 54.1-24.3 54.1-54.1V188.4c0-29.8-24.3-54.1-54.1-54.1H188.2z" fill="#ffffff" p-id="5870"></path><path d="M116 260.5h790.9v18H116z" fill="#ffffff" p-id="5871"></path></svg>