<svg t="1640182563324" class="icon" viewBox="0 0 1024 1024" version="1.1" xmlns="http://www.w3.org/2000/svg" p-id="1629" width="80" height="80"><path d="M539.8 558.3c-7.2-7.2-28.2-10-39.2 0.9L228.2 831.8V205.5c0-13.4 11-24.3 24.7-24.3h517.7c13.6 0 24.6 10.9 24.6 24.3v306.2c0 12 8.8 21.7 19.6 21.7s19.6-9.7 19.6-21.7v-322c0-26.3-21.4-47.7-47.8-47.7H236.8c-26.4 0-47.8 21.4-47.8 47.7V884.9c0 10.7 8.6 19.3 19.3 19.3h5c8.7 0 15.1-6.4 15.1-6.5l292.2-292.4 97.7 97.5c9.1 9.1 23.9 9.1 33 0 9.1-9.1 9.1-23.9 0-33L539.8 558.3zM928.6 748.2h-94.2v-93.5c0-12.9-8.8-23.4-19.6-23.4s-19.6 10.5-19.6 23.4v93.5h-93.6c-13 0-23.5 8.8-23.5 19.6s10.5 19.6 23.5 19.6h93.6v94.1c0 13 8.8 23.5 19.6 23.5s19.6-10.5 19.6-23.5v-94.1h94.2c13 0 23.5-8.8 23.5-19.6s-10.5-19.6-23.5-19.6z" p-id="1630" fill="#515151"></path></svg>