<svg t="1632882513295" class="icon" viewBox="0 0 1024 1024" version="1.1" xmlns="http://www.w3.org/2000/svg" p-id="4888" width="64" height="64"><path d="M937.6256 371.6096l-44.5952 323.1232A61.09696 61.09696 0 0 1 832.4608 747.52H436.4288c-25.3952 0-48.128-15.7184-57.1392-39.4752 0 0-5.632-14.9504-14.9504-39.7312v-0.0512c-2.0992-5.5808-4.352-11.6224-6.8096-18.0736-29.2864-77.8752-82.176-218.5728-121.088-322.048h-0.1024l-31.8464-84.8896c-4.8128-12.9024-17.408-21.5552-31.3344-21.5552-3.8912 0-7.7824 0.7168-11.4688 2.0992-8.2944 3.072-14.848 9.2672-18.5344 17.408a33.01376 33.01376 0 0 0-0.9728 25.4464l0.9728 2.6624c5.12 13.6704-5.3248 28.3136-20.1728 27.648-8.3456-0.4096-15.5136-6.1952-18.432-14.0288l-0.7168-1.8944c-3.1744-8.4992-4.7104-17.2544-4.7104-25.856 0-30.0544 18.432-58.5216 48.1792-69.6832 8.4992-3.2256 17.2544-4.7104 25.856-4.7104 18.3296 0 36.096 6.8608 49.664 18.944 7.7824 6.8608 14.1824 15.5136 18.4832 25.5488 0.5632 1.1776 1.0752 2.4064 1.536 3.6352l32.768 87.3984 15.7184 41.8304 112.6912 299.3152 13.568 36.096a20.21888 20.21888 0 0 0 18.8416 13.056h396.032c10.0864 0 18.6368-7.424 20.0192-17.4592l44.544-323.1232c1.1264-7.8848-2.5088-13.4144-4.7616-16.0256-2.2528-2.56-7.2192-6.912-15.2576-6.912H788.48c-11.3152 0-20.48-9.1648-20.48-20.48s9.1648-20.48 20.48-20.48h88.5248c37.12-0.0512 65.6896 32.7168 60.6208 69.4784zM428.1856 809.472c-41.8304-5.2736-77.1072 29.952-71.7824 71.7824 3.584 28.5184 26.624 51.5584 55.1424 55.1424 41.8304 5.2736 77.1072-29.952 71.7824-71.7824-3.6352-28.5184-26.624-51.5072-55.1424-55.1424z m-2.0992 85.7088a23.11168 23.11168 0 0 1-28.4672-28.4672c2.048-7.68 8.2432-13.9264 15.9744-15.9232a23.11168 23.11168 0 0 1 28.4672 28.4672 22.87616 22.87616 0 0 1-15.9744 15.9232zM835.2256 809.472c-41.8304-5.2736-77.1072 29.952-71.7824 71.7824 3.584 28.5184 26.624 51.5584 55.1424 55.1424 41.8304 5.2736 77.1072-29.952 71.7824-71.7824-3.6352-28.5184-26.624-51.5072-55.1424-55.1424z m-2.0992 85.7088a23.11168 23.11168 0 0 1-28.4672-28.4672c2.048-7.68 8.2432-13.9264 15.9744-15.9232a23.11168 23.11168 0 0 1 28.4672 28.4672 22.87616 22.87616 0 0 1-15.9744 15.9232z" fill="#ffffff" p-id="4889"></path><path d="M561.8176 182.272c-11.264 0-20.48 9.216-20.48 20.48v196.096L475.6992 333.2096c-3.9936-3.9936-9.216-5.9904-14.4896-5.9904s-10.496 1.9968-14.4896 5.9904a20.52096 20.52096 0 0 0 0 28.9792l99.8912 99.8912c0.512 0.6144 1.1264 1.1776 1.6896 1.6896l1.3824 1.3824c3.9936 3.9936 9.1648 5.888 14.4384 5.888 0.5632 0 1.0752 0 1.6384-0.0512 0.5632 0.0512 1.0752 0.0512 1.6384 0.0512 5.2224 0 10.4448-1.8944 14.4384-5.888l96.4608-96.4608a20.52096 20.52096 0 0 0 0-28.9792c-3.9936-3.9936-9.216-5.9904-14.4896-5.9904s-10.496 1.9968-14.4896 5.9904l-67.0208 67.0208V202.752c0-11.264-9.216-20.48-20.48-20.48z" fill="#ffffff" p-id="4890"></path></svg>