<svg t="1645971341452" class="icon" viewBox="0 0 1024 1024" version="1.1" xmlns="http://www.w3.org/2000/svg" p-id="3667" width="64" height="64"><path d="M995.555556 452.266667l-105.244445 455.111111c-5.688889 59.733333-51.2 102.4-108.088889 102.4H93.866667c-28.444444 0-62.577778 2.844444-65.422223-31.288889V457.955556c-2.844444-39.822222 39.822222-45.511111 56.888889-45.511112h85.333334c51.2 0 110.933333-25.6 130.844444-48.355555 34.133333-42.666667 62.577778-99.555556 79.644445-164.977778 5.688889-17.066667 8.533333-34.133333 11.377777-51.2l5.688889-25.6c2.844444-19.911111 8.533333-42.666667 22.755556-62.577778 14.222222-22.755556 39.822222-36.977778 65.422222-42.666666 19.911111-2.844444 42.666667 0 59.733333 8.533333 28.444444 14.222222 51.2 42.666667 62.577778 82.488889 2.844444 14.222222 5.688889 31.288889 5.688889 48.355555 0 19.911111-2.844444 36.977778-5.688889 54.044445v5.688889c-2.844444 22.755556-8.533333 45.511111-8.533333 65.422222 0 28.444444 28.444444 48.355556 54.044444 48.355556h256c28.444444-2.844444 108.088889-5.688889 85.333334 122.311111z m-369.777778-68.266667c-59.733333 0-82.488889-39.822222-85.333334-102.4 0-28.444444 2.844444-54.044444 8.533334-79.644444v-5.688889c2.844444-14.222222 5.688889-28.444444 5.688889-39.822223 0-11.377778-2.844444-22.755556-5.688889-34.133333-2.844444-11.377778-11.377778-31.288889-28.444445-39.822222-8.533333-2.844444-17.066667-5.688889-25.6-2.844445-11.377778 0-19.911111 5.688889-28.444444 14.222223-5.688889 8.533333-8.533333 25.6-11.377778 39.822222l-5.688889 25.6c-2.844444 19.911111-8.533333 36.977778-14.222222 56.888889-19.911111 73.955556-51.2 136.533333-91.022222 187.733333-39.822222 51.2-136.533333 65.422222-173.511111 65.422222H142.222222c-28.444444 0-56.888889 0-56.888889 28.444445v426.666666c0 28.444444 31.288889 28.444444 56.888889 28.444445h625.777778c25.6 0 59.733333-25.6 62.577778-51.2L938.666667 440.888889c5.688889-36.977778-5.688889-59.733333-56.888889-56.888889h-256zM236.088889 967.111111c-5.688889 5.688889-14.222222 8.533333-19.911111 8.533333-8.533333 0-14.222222-2.844444-19.911111-8.533333-8.533333-5.688889 2.844444-5.688889 2.844444-14.222222v-483.555556c0-17.066667 0-36.977778 17.066667-36.977777s39.822222 2.844444 39.822222 19.911111v500.622222c0 8.533333-14.222222 8.533333-19.911111 14.222222z" fill="#24bd9c" p-id="3668"></path></svg>