<svg t="1640182831335" class="icon" viewBox="0 0 1047 1024" version="1.1" xmlns="http://www.w3.org/2000/svg" p-id="3390" width="64" height="64"><path d="M523.636364 1024C234.821818 1024 0 794.298182 0 512S234.821818 0 523.636364 0 1047.272727 229.701818 1047.272727 512 812.450909 1024 523.636364 1024z m0-1000.727273A495.476364 495.476364 0 0 0 23.272727 512a495.476364 495.476364 0 0 0 500.363637 488.727273A495.476364 495.476364 0 0 0 1024 512 495.476364 495.476364 0 0 0 523.636364 23.272727z" fill="#515151" p-id="3391"></path><path d="M449.861818 776.843636a73.541818 73.541818 0 0 1-36.538182-8.843636 69.818182 69.818182 0 0 1-36.305454-61.672727V328.843636a69.818182 69.818182 0 0 1 36.305454-61.672727 74.007273 74.007273 0 0 1 72.843637 0l333.498182 188.276364a69.818182 69.818182 0 0 1 0 123.345454L486.167273 768a73.309091 73.309091 0 0 1-36.305455 8.843636z m0-496.407272a50.501818 50.501818 0 0 0-24.901818 6.516363 46.545455 46.545455 0 0 0-24.669091 41.890909v376.552728a46.545455 46.545455 0 0 0 24.669091 41.890909 49.570909 49.570909 0 0 0 49.570909 0L808.029091 558.545455a47.941818 47.941818 0 0 0 0-84.014546l-333.498182-187.578182a49.570909 49.570909 0 0 0-24.669091-6.516363z" fill="#515151" p-id="3392"></path></svg>